<?xml version="1.0" standalone="no"?>
<!DOCTYPE svg PUBLIC "-//W3C//DTD SVG 20010904//EN"
 "http://www.w3.org/TR/2001/REC-SVG-20010904/DTD/svg10.dtd">
<svg version="1.0" xmlns="http://www.w3.org/2000/svg"
 width="1923.000000pt" height="1198.000000pt" viewBox="0 0 1923.000000 1198.000000"
 preserveAspectRatio="xMidYMid meet">

<g transform="translate(0.000000,1198.000000) scale(0.100000,-0.100000)"
fill="#000000" stroke="none">
<path d="M16 11218 c-3 -420 -9 -1301 -12 -1958 l-6 -1195 27 -150 c152 -867
1010 -5089 1231 -6060 137 -600 315 -959 630 -1266 251 -244 544 -401 928
-499 329 -83 714 -109 1041 -69 44 5 206 25 360 44 154 19 1025 124 1935 234
910 110 4224 511 7363 891 3140 379 5710 690 5713 690 2 0 4 2273 4 5050 l0
5050 -9604 0 -9603 0 -7 -762z"/>
</g>
</svg>
