<svg width="360" height="360" viewBox="0 0 360 360" fill="EF4140" xmlns="http://www.w3.org/2000/svg">
<path d="M120.01 180C120.01 146.864 146.864 119.995 180 119.995C213.136 119.995 240.005 146.864 240.005 180C240.005 213.136 213.136 240.005 180 240.005C146.864 240.005 120.01 213.136 120.01 180ZM87.5719 180C87.5719 231.048 128.952 272.428 180 272.428C231.048 272.428 272.428 231.048 272.428 180C272.428 128.952 231.048 87.5719 180 87.5719C128.952 87.5719 87.5719 128.952 87.5719 180ZM254.486 83.9079C254.486 95.8304 264.155 105.514 276.092 105.514C288.015 105.514 297.698 95.8304 297.698 83.9079C297.698 71.9855 288.029 62.3166 276.092 62.3166C264.155 62.3166 254.486 71.9855 254.486 83.9079ZM107.273 326.515C89.7237 325.716 80.1858 322.793 73.8465 320.322C65.4426 317.05 59.4523 313.153 53.1422 306.858C46.8465 300.562 42.9354 294.572 39.6785 286.168C37.2068 279.829 34.2843 270.291 33.4847 252.742C32.6123 233.767 32.4378 228.068 32.4378 180C32.4378 131.932 32.6268 126.247 33.4847 107.258C34.2843 89.7092 37.2213 80.1858 39.6785 73.832C42.9499 65.4281 46.8465 59.4378 53.1422 53.1276C59.4378 46.832 65.4281 42.9208 73.8465 39.664C80.1858 37.1922 89.7237 34.2698 107.273 33.4701C126.247 32.5977 131.947 32.4233 180 32.4233C228.068 32.4233 233.753 32.6123 252.742 33.4701C270.291 34.2698 279.814 37.2068 286.168 39.664C294.572 42.9208 300.562 46.832 306.872 53.1276C313.168 59.4233 317.065 65.4281 320.336 73.832C322.808 80.1712 325.73 89.7092 326.53 107.258C327.402 126.247 327.577 131.932 327.577 180C327.577 228.053 327.402 233.753 326.53 252.742C325.73 270.291 322.793 279.829 320.336 286.168C317.065 294.572 313.168 300.562 306.872 306.858C300.577 313.153 294.572 317.05 286.168 320.322C279.829 322.793 270.291 325.716 252.742 326.515C233.767 327.388 228.068 327.562 180 327.562C131.947 327.562 126.247 327.388 107.273 326.515ZM105.79 1.09047C86.6268 1.96284 73.5412 5.00162 62.0985 9.45073C50.2633 14.0452 40.231 20.21 30.2132 30.2132C20.21 40.2165 14.0452 50.2488 9.45073 62.0985C5.00162 73.5412 1.96284 86.6268 1.09047 105.79C0.203554 124.982 0 131.118 0 180C0 228.882 0.203554 235.018 1.09047 254.21C1.96284 273.373 5.00162 286.459 9.45073 297.901C14.0452 309.737 20.1955 319.784 30.2132 329.787C40.2165 339.79 50.2488 345.94 62.0985 350.549C73.5557 354.998 86.6268 358.037 105.79 358.91C124.997 359.782 131.118 360 180 360C228.897 360 235.018 359.796 254.21 358.91C273.373 358.037 286.459 354.998 297.901 350.549C309.737 345.94 319.769 339.79 329.787 329.787C339.79 319.784 345.94 309.737 350.549 297.901C354.998 286.459 358.052 273.373 358.91 254.21C359.782 235.003 359.985 228.882 359.985 180C359.985 131.118 359.782 124.982 358.91 105.79C358.037 86.6268 354.998 73.5412 350.549 62.0985C345.94 50.2633 339.79 40.231 329.787 30.2132C319.784 20.21 309.737 14.0452 297.916 9.45073C286.459 5.00162 273.373 1.9483 254.225 1.09047C235.032 0.218094 228.897 0 180.015 0C131.118 0 124.997 0.203554 105.79 1.09047Z" fill="#EF4140"/>
</svg>
