<svg width="268" height="218" viewBox="0 0 268 218" fill="none" xmlns="http://www.w3.org/2000/svg">
<path d="M84.5491 217.496C185.3 217.496 240.397 133.997 240.397 61.5901C240.397 59.2188 240.349 56.8583 240.242 54.5076C250.963 46.7475 260.215 37.1391 267.565 26.1331C257.75 30.4981 247.189 33.4359 236.109 34.7605C247.418 27.977 256.1 17.2453 260.196 4.45312C249.444 10.834 237.681 15.3321 225.414 17.7537C215.419 7.10282 201.189 0.441406 185.432 0.441406C155.183 0.441406 130.654 24.9805 130.654 55.2288C130.654 59.5292 131.135 63.7107 132.075 67.723C86.5504 65.4314 46.1825 43.6272 19.1662 10.4726C14.3003 18.8348 11.741 28.3387 11.7494 38.0136C11.7494 57.0244 21.4192 73.8065 36.1247 83.625C27.4262 83.3592 18.9187 81.0088 11.3175 76.7715C11.3094 77.0015 11.3094 77.2257 11.3094 77.4715C11.3094 104.008 30.1899 126.164 55.2532 131.185C50.546 132.467 45.6886 133.116 40.8098 133.113C37.2865 133.113 33.8527 132.766 30.5155 132.125C37.4889 153.897 57.7097 169.74 81.684 170.183C62.9364 184.883 39.3203 193.638 13.653 193.638C9.28669 193.642 4.92392 193.388 0.587402 192.879C24.8292 208.423 53.6139 217.493 84.5518 217.493" fill="#1DA1F2"/>
</svg>
